<svg xmlns="http://www.w3.org/2000/svg" viewBox="0 0 1958 980" font-family="&quot;Source Sans 3&quot;, &quot;Noto Sans SC&quot;, system-ui, sans-serif" role="img" aria-labelledby="atlas-title atlas-desc" data-atlas-model="zai-org/glm-5.3-flash" data-atlas-view="overview" data-atlas-ir="0.1.0">
  <title id="atlas-title">GLM-5.3-Flash (320B-A18B) — overview</title>
  <desc id="atlas-desc">Generated from Architecture IR 0.1.0. 16 nodes, 28 evidence annotations; both themes ship in this document via CSS variables.</desc>
  <style>:root{--paper:#f5f7fa;--ink:#172033;--muted:#5d6778;--panel:#ffffff;--line:#b9c2d2;--attention:#1769e0;--state:#007a7a;--compute:#b45309;--conflict:#b3383f;--focus:#1769e0;--font-sans:&quot;Source Sans 3&quot;, &quot;Noto Sans SC&quot;, system-ui, sans-serif;--font-mono:&quot;IBM Plex Mono&quot;, ui-monospace, monospace}@media (prefers-color-scheme: dark){:root{--paper:#0b1220;--ink:#e6ebf4;--muted:#97a3b8;--panel:#101a2e;--line:#3a465c;--attention:#6ea8ff;--state:#2dd4bf;--compute:#f5a623;--conflict:#ff8a96;--focus:#9ec1ff}}.n-box{fill:var(--panel);stroke:var(--ink);stroke-width:2}.n-label{fill:var(--ink);font-size:16px;font-weight:700;text-anchor:middle}.n-detail{fill:var(--muted);font-size:12.8px;text-anchor:middle}.n-port{fill:var(--attention);stroke:none}.e-flow{fill:none;stroke:var(--ink);stroke-width:2.5;marker-end:url(#arrow)}.e-skip{fill:none;stroke:var(--ink);stroke-width:2;stroke-dasharray:6 5;marker-end:url(#arrow)}.e-residual{fill:none;stroke:var(--attention);stroke-width:2;stroke-dasharray:10 6;marker-end:url(#arrow)}.e-control{fill:none;stroke:var(--muted);stroke-width:1.5;stroke-dasharray:2 4} .e-label{fill:var(--muted);font-size:11.5px;font-family:var(--font-mono)}.g-frame{fill:none;stroke:var(--line);stroke-width:1}.g-inset{stroke:var(--muted);fill:var(--paper)}.g-port{fill:var(--attention);stroke:var(--paper);stroke-width:1}.g-label{fill:var(--muted);font-size:12.8px;font-weight:700;letter-spacing:.08em;text-transform:uppercase}.g-badge{fill:var(--attention);color:#fff}.attn{stroke:var(--attention)}.compute{stroke:var(--compute)}</style>
  <defs><marker id="arrow" viewBox="0 0 10 10" refX="9" refY="5" markerWidth="7" markerHeight="7" orient="auto-start-reverse"><path d="M0,0 L10,5 L0,10 z" fill="var(--ink)"/></marker></defs>
  <rect width="100%" height="100%" fill="var(--paper)"/>
  <g class="grp" data-group-id="g-dsa" data-claim-path="topology.attention_groups[1]"><rect class="g-frame g-inset" x="326" y="598" width="655" height="122" rx="28"/><text class="g-label" x="338" y="614">DSA (1 of 4 layers)</text><rect class="g-port" x="323" y="666" width="6" height="6" rx="1.5"/></g>
  <g class="grp" data-group-id="g-moe" data-claim-path="topology.experts.routed_total"><rect class="g-frame g-inset" x="1733" y="598" width="197" height="354" rx="28"/><text class="g-label" x="1745" y="614">Sparse MoE block</text><rect class="g-port" x="1730" y="776" width="6" height="6" rx="1.5"/><rect class="g-port" x="1730" y="904" width="6" height="6" rx="1.5"/></g>
  <g class="grp" data-group-id="g-decoder" data-claim-path="facts.num_hidden_layers"><rect class="g-frame" x="930.5" y="216" width="308" height="470" rx="28"/><text class="g-label" x="942.5" y="232">Decoder · 45 layers</text><g transform="translate(1180.5,222)"><rect width="52" height="20" rx="8" class="g-badge"/><text x="26" y="14" font-size="12" font-weight="700" fill="#ffffff" text-anchor="middle">45 ×</text></g></g>
  <g class="grp" data-group-id="g-mhc" data-claim-path="topology.residual.streams"><rect class="g-frame" x="1212" y="564" width="270" height="122" rx="28"/><text class="g-label" x="1224" y="580">mHC · 4 streams</text></g>
  <polyline class="e-flow" data-edge-id="e-tok-embed" points="211,598 571.5,598 571.5,482 931.5,482"/>
  <polyline class="e-flow" data-edge-id="e-embed-block" points="931.5,482 931.5,424 1031,424 1031,366"/>
  <polyline class="e-flow" data-edge-id="e-unit-tail" points="1031,366 1031,250"/>
  <polyline class="e-flow" data-edge-id="e-tail-norm" points="1031,250 1031,158"/>
  <polyline class="e-flow" data-edge-id="e-norm-head" points="1031,158 1031,42"/>
  <polyline class="e-control" data-edge-id="e-dsa-q" points="1031,366 678.5,366 678.5,669 326,669"/><text class="e-label" x="684.5" y="663">Q</text>
  <polyline class="e-flow" data-edge-id="e-index-topk" data-claim-path="topology.attention.dsa_indexer_heads" points="525,669 719,669"/>
  <polyline class="e-flow" data-edge-id="e-topk-sel" data-claim-path="topology.attention.dsa_topk" points="719,669 967,669"/><text class="e-label" x="973" y="663">selected KV</text>
  <polyline class="e-control" data-edge-id="e-moe-router" points="1143,482 1438,482 1438,779 1733,779"/>
  <polyline class="e-control" data-edge-id="e-router-experts" data-claim-path="topology.experts.active_routed" points="1916,785 1916,727 1909,727 1909,669"/><text class="e-label" x="1915" y="721">top-8</text>
  <polyline class="e-control" data-edge-id="e-shared" data-claim-path="topology.experts.shared" points="1143,482 1438,482 1438,907 1733,907"/>
  <polyline class="e-flow" data-edge-id="e-dense-moe" data-claim-path="topology.ffn_groups[0]" points="1103.5,598 1103.5,540 1143,540 1143,482"/>
  <polyline class="e-skip" data-edge-id="e-mhc-s1" data-claim-path="topology.residual.streams" points="1347,598 24,598 24,598 1347,598"/><text class="e-label" x="30" y="592">s1</text>
  <polyline class="e-skip" data-edge-id="e-mhc-s2" data-claim-path="topology.residual.streams" points="1347,598 42,598 42,598 1347,598"/><text class="e-label" x="48" y="592">s2</text>
  <polyline class="e-skip" data-edge-id="e-mhc-s3" data-claim-path="topology.residual.streams" points="1347,598 60,598 60,598 1347,598"/><text class="e-label" x="66" y="592">s3</text>
  <polyline class="e-skip" data-edge-id="e-mhc-s4" data-claim-path="topology.residual.streams" points="1347,598 78,598 78,598 1347,598"/><text class="e-label" x="84" y="592">s4</text>
  <polyline class="e-control" data-edge-id="e-embed-mhc" points="931.5,482 1139.5,482 1139.5,598 1347,598"/>
  <polyline class="e-control" data-edge-id="e-mhc-head" points="1347,598 1347,320 1031,320 1031,42"/>
  <polyline class="e-control" data-edge-id="c-mtp" data-claim-path="topology.mtp.predict_layers" points="1031,42 1316,42 1316,598 1600.5,598"/>
  <g class="node" data-node-id="tok"><title>Tokenized text</title><rect class="n-box" x="132" y="598" width="158" height="50" rx="10"/><text class="n-label" x="211" y="628">Tokenized text</text></g>
  <g class="node" data-node-id="embed" data-claim-path="facts.hidden_size" data-claims='[{&quot;claimPath&quot;:&quot;facts.hidden_size&quot;,&quot;label&quot;:&quot;hidden 4,096&quot;},{&quot;claimPath&quot;:&quot;facts.vocab_size&quot;,&quot;label&quot;:&quot;vocab 154,880&quot;}]'><title>Token embedding</title><rect class="n-box" x="837.5" y="482" width="188" height="74" rx="10"/><text class="n-label" x="931.5" y="515">Token embedding</text><text class="n-detail" x="931.5" y="533">hidden 4,096 · vocab 154,880</text></g>
  <g class="node" data-node-id="unit" data-claim-path="topology.attention_groups[0]" data-claims='[{&quot;claimPath&quot;:&quot;topology.attention_groups[0]&quot;,&quot;label&quot;:&quot;34 KDA layers&quot;},{&quot;claimPath&quot;:&quot;topology.attention_groups[1]&quot;,&quot;label&quot;:&quot;11 MLA/DSA layers&quot;}]'><title>K,K,K,D × 11 units</title><rect class="n-box" x="944.5" y="366" width="173" height="74" rx="10"/><text class="n-label" x="1031" y="399">K,K,K,D × 11 units</text><text class="n-detail" x="1031" y="417">34 KDA · 11 MLA/DSA</text><circle class="n-port" cx="944.5" cy="390.5" r="3"/><circle class="n-port" cx="944.5" cy="415.5" r="3"/><circle class="n-port" cx="1117.5" cy="390.5" r="3"/><circle class="n-port" cx="1117.5" cy="415.5" r="3"/></g>
  <g class="node attn" data-node-id="tail-kda" data-claim-path="topology.attention_groups[0]" data-claims='[{&quot;claimPath&quot;:&quot;topology.attention_groups[0]&quot;,&quot;label&quot;:&quot;1 tail KDA layer&quot;}]'><title>KDA</title><rect class="n-box attn" x="987.5" y="250" width="87" height="74" rx="10"/><text class="n-label" x="1031" y="283">KDA</text><text class="n-detail" x="1031" y="301">tail layer</text></g>
  <g class="node attn" data-node-id="dsa" data-claim-path="topology.attention_groups[1]" data-claims='[{&quot;claimPath&quot;:&quot;topology.attention.dsa_indexer_heads&quot;,&quot;label&quot;:&quot;indexer 32 heads&quot;},{&quot;claimPath&quot;:&quot;topology.attention.dsa_topk&quot;,&quot;label&quot;:&quot;top-k 2048&quot;}]'><title>MLA core</title><rect class="n-box attn" x="755" y="632" width="212" height="74" rx="10"/><text class="n-label" x="861" y="665">MLA core</text><text class="n-detail" x="861" y="683">selected KV → latent attention</text><circle class="n-port" cx="967" cy="669" r="3"/></g>
  <g class="node" data-node-id="indexer" data-claim-path="topology.attention.dsa_indexer_heads" data-claims='[{&quot;claimPath&quot;:&quot;topology.attention.dsa_indexer_heads&quot;,&quot;label&quot;:&quot;indexer 32 heads&quot;}]'><title>Lightning indexer</title><rect class="n-box" x="340" y="632" width="185" height="74" rx="10"/><text class="n-label" x="432.5" y="665">Lightning indexer</text><text class="n-detail" x="432.5" y="683">scores all positions</text></g>
  <g class="node" data-node-id="topk" data-claim-path="topology.attention.dsa_topk" data-claims='[{&quot;claimPath&quot;:&quot;topology.attention.dsa_topk&quot;,&quot;label&quot;:&quot;k=2048&quot;}]'><title>Top-k selector</title><rect class="n-box" x="561" y="632" width="158" height="74" rx="10"/><text class="n-label" x="640" y="665">Top-k selector</text><text class="n-detail" x="640" y="683">keeps k tokens</text></g>
  <g class="node" data-node-id="router" data-claim-path="topology.experts.routed_total" data-claims='[{&quot;claimPath&quot;:&quot;topology.experts.routed_total&quot;,&quot;label&quot;:&quot;288 experts&quot;}]'><title>Router</title><rect class="n-box" x="1747" y="748" width="169" height="74" rx="10"/><text class="n-label" x="1831.5" y="781">Router</text><text class="n-detail" x="1831.5" y="799">softmax over experts</text></g>
  <g class="node compute" data-node-id="experts" data-claim-path="topology.experts.routed_total" data-claims='[{&quot;claimPath&quot;:&quot;topology.experts.routed_total&quot;,&quot;label&quot;:&quot;288 routed&quot;},{&quot;claimPath&quot;:&quot;topology.experts.active_routed&quot;,&quot;label&quot;:&quot;top-8&quot;}]'><title>Routed experts</title><rect class="n-box compute" x="1747" y="632" width="162" height="74" rx="10"/><text class="n-label" x="1828" y="665">Routed experts</text><text class="n-detail" x="1828" y="683">288 routed · top-8</text></g>
  <g class="node compute" data-node-id="shared" data-claim-path="topology.experts.shared" data-claims='[{&quot;claimPath&quot;:&quot;topology.experts.shared&quot;,&quot;label&quot;:&quot;1 shared&quot;}]'><title>Shared expert</title><rect class="n-box compute" x="1747" y="864" width="157" height="74" rx="10"/><text class="n-label" x="1825.5" y="897">Shared expert</text><text class="n-detail" x="1825.5" y="915">always on</text></g>
  <g class="node compute" data-node-id="dense3" data-claim-path="topology.ffn_groups[0]" data-claims='[{&quot;claimPath&quot;:&quot;topology.ffn_groups[0]&quot;,&quot;label&quot;:&quot;first 3 blocks dense&quot;}]'><title>Dense SwiGLU ×3</title><rect class="n-box compute" x="1017" y="598" width="173" height="74" rx="10"/><text class="n-label" x="1103.5" y="631">Dense SwiGLU ×3</text><text class="n-detail" x="1103.5" y="649">layers 0–2</text></g>
  <g class="node compute" data-node-id="moe42" data-claim-path="topology.ffn_groups[1]" data-claims='[{&quot;claimPath&quot;:&quot;topology.ffn_groups[1]&quot;,&quot;label&quot;:&quot;42 sparse MoE blocks&quot;}]'><title>Sparse MoE ×42</title><rect class="n-box compute" x="1061.5" y="482" width="163" height="74" rx="10"/><text class="n-label" x="1143" y="515">Sparse MoE ×42</text><text class="n-detail" x="1143" y="533">layers 3–44</text></g>
  <g class="node" data-node-id="norm"><title>Final RMSNorm</title><rect class="n-box" x="951.5" y="158" width="159" height="50" rx="10"/><text class="n-label" x="1031" y="188">Final RMSNorm</text></g>
  <g class="node" data-node-id="head" data-claim-path="facts.vocab_size" data-claims='[{&quot;claimPath&quot;:&quot;facts.vocab_size&quot;,&quot;label&quot;:&quot;vocab 154,880&quot;}]'><title>Linear output</title><rect class="n-box" x="957.5" y="42" width="147" height="74" rx="10"/><text class="n-label" x="1031" y="75">Linear output</text><text class="n-detail" x="1031" y="93">vocab 154,880</text></g>
  <g class="node" data-node-id="mhc" data-claim-path="topology.residual.streams" data-claims='[{&quot;claimPath&quot;:&quot;topology.residual.streams&quot;,&quot;label&quot;:&quot;4 streams&quot;}]'><title>mHC mixers</title><rect class="n-box" x="1226" y="598" width="242" height="74" rx="10"/><text class="n-label" x="1347" y="631">mHC mixers</text><text class="n-detail" x="1347" y="649">pre/read · res/mix · post/write</text><circle class="n-port" cx="1226" cy="622.5" r="3"/><circle class="n-port" cx="1226" cy="647.5" r="3"/><circle class="n-port" cx="1468" cy="622.5" r="3"/><circle class="n-port" cx="1468" cy="647.5" r="3"/></g>
  <g class="node" data-node-id="mtp" data-claim-path="topology.mtp.predict_layers" data-claims='[{&quot;claimPath&quot;:&quot;topology.mtp.predict_layers&quot;,&quot;label&quot;:&quot;1 prediction layer&quot;}]'><title>MTP head (omitted)</title><rect class="n-box" x="1504" y="598" width="193" height="74" rx="10"/><text class="n-label" x="1600.5" y="631">MTP head (omitted)</text><text class="n-detail" x="1600.5" y="649">not drawn in overview</text></g>
</svg>
