<svg xmlns="http://www.w3.org/2000/svg" viewBox="0 0 1040 1360" font-family="Helvetica, Arial, sans-serif">
<defs><marker id="ar-b" viewBox="0 0 10 10" refX="9" refY="5" markerWidth="7" markerHeight="7" orient="auto-start-reverse"><path d="M0,0 L10,5 L0,10 z" fill="#9fd4f5"/></marker></defs>
<rect x="0" y="0" width="1040" height="1360" rx="0" fill="#0d1a2b" stroke="none" stroke-width="0"/>
<line x1="0" y1="0" x2="0" y2="1360" stroke="#15273c" stroke-width="0.6"/>
<line x1="26" y1="0" x2="26" y2="1360" stroke="#15273c" stroke-width="0.6"/>
<line x1="52" y1="0" x2="52" y2="1360" stroke="#15273c" stroke-width="0.6"/>
<line x1="78" y1="0" x2="78" y2="1360" stroke="#15273c" stroke-width="0.6"/>
<line x1="104" y1="0" x2="104" y2="1360" stroke="#15273c" stroke-width="0.6"/>
<line x1="130" y1="0" x2="130" y2="1360" stroke="#15273c" stroke-width="0.6"/>
<line x1="156" y1="0" x2="156" y2="1360" stroke="#15273c" stroke-width="0.6"/>
<line x1="182" y1="0" x2="182" y2="1360" stroke="#15273c" stroke-width="0.6"/>
<line x1="208" y1="0" x2="208" y2="1360" stroke="#15273c" stroke-width="0.6"/>
<line x1="234" y1="0" x2="234" y2="1360" stroke="#15273c" stroke-width="0.6"/>
<line x1="260" y1="0" x2="260" y2="1360" stroke="#15273c" stroke-width="0.6"/>
<line x1="286" y1="0" x2="286" y2="1360" stroke="#15273c" stroke-width="0.6"/>
<line x1="312" y1="0" x2="312" y2="1360" stroke="#15273c" stroke-width="0.6"/>
<line x1="338" y1="0" x2="338" y2="1360" stroke="#15273c" stroke-width="0.6"/>
<line x1="364" y1="0" x2="364" y2="1360" stroke="#15273c" stroke-width="0.6"/>
<line x1="390" y1="0" x2="390" y2="1360" stroke="#15273c" stroke-width="0.6"/>
<line x1="416" y1="0" x2="416" y2="1360" stroke="#15273c" stroke-width="0.6"/>
<line x1="442" y1="0" x2="442" y2="1360" stroke="#15273c" stroke-width="0.6"/>
<line x1="468" y1="0" x2="468" y2="1360" stroke="#15273c" stroke-width="0.6"/>
<line x1="494" y1="0" x2="494" y2="1360" stroke="#15273c" stroke-width="0.6"/>
<line x1="520" y1="0" x2="520" y2="1360" stroke="#15273c" stroke-width="0.6"/>
<line x1="546" y1="0" x2="546" y2="1360" stroke="#15273c" stroke-width="0.6"/>
<line x1="572" y1="0" x2="572" y2="1360" stroke="#15273c" stroke-width="0.6"/>
<line x1="598" y1="0" x2="598" y2="1360" stroke="#15273c" stroke-width="0.6"/>
<line x1="624" y1="0" x2="624" y2="1360" stroke="#15273c" stroke-width="0.6"/>
<line x1="650" y1="0" x2="650" y2="1360" stroke="#15273c" stroke-width="0.6"/>
<line x1="676" y1="0" x2="676" y2="1360" stroke="#15273c" stroke-width="0.6"/>
<line x1="702" y1="0" x2="702" y2="1360" stroke="#15273c" stroke-width="0.6"/>
<line x1="728" y1="0" x2="728" y2="1360" stroke="#15273c" stroke-width="0.6"/>
<line x1="754" y1="0" x2="754" y2="1360" stroke="#15273c" stroke-width="0.6"/>
<line x1="780" y1="0" x2="780" y2="1360" stroke="#15273c" stroke-width="0.6"/>
<line x1="806" y1="0" x2="806" y2="1360" stroke="#15273c" stroke-width="0.6"/>
<line x1="832" y1="0" x2="832" y2="1360" stroke="#15273c" stroke-width="0.6"/>
<line x1="858" y1="0" x2="858" y2="1360" stroke="#15273c" stroke-width="0.6"/>
<line x1="884" y1="0" x2="884" y2="1360" stroke="#15273c" stroke-width="0.6"/>
<line x1="910" y1="0" x2="910" y2="1360" stroke="#15273c" stroke-width="0.6"/>
<line x1="936" y1="0" x2="936" y2="1360" stroke="#15273c" stroke-width="0.6"/>
<line x1="962" y1="0" x2="962" y2="1360" stroke="#15273c" stroke-width="0.6"/>
<line x1="988" y1="0" x2="988" y2="1360" stroke="#15273c" stroke-width="0.6"/>
<line x1="1014" y1="0" x2="1014" y2="1360" stroke="#15273c" stroke-width="0.6"/>
<line x1="1040" y1="0" x2="1040" y2="1360" stroke="#15273c" stroke-width="0.6"/>
<line x1="0" y1="0" x2="1040" y2="0" stroke="#15273c" stroke-width="0.6"/>
<line x1="0" y1="26" x2="1040" y2="26" stroke="#15273c" stroke-width="0.6"/>
<line x1="0" y1="52" x2="1040" y2="52" stroke="#15273c" stroke-width="0.6"/>
<line x1="0" y1="78" x2="1040" y2="78" stroke="#15273c" stroke-width="0.6"/>
<line x1="0" y1="104" x2="1040" y2="104" stroke="#15273c" stroke-width="0.6"/>
<line x1="0" y1="130" x2="1040" y2="130" stroke="#15273c" stroke-width="0.6"/>
<line x1="0" y1="156" x2="1040" y2="156" stroke="#15273c" stroke-width="0.6"/>
<line x1="0" y1="182" x2="1040" y2="182" stroke="#15273c" stroke-width="0.6"/>
<line x1="0" y1="208" x2="1040" y2="208" stroke="#15273c" stroke-width="0.6"/>
<line x1="0" y1="234" x2="1040" y2="234" stroke="#15273c" stroke-width="0.6"/>
<line x1="0" y1="260" x2="1040" y2="260" stroke="#15273c" stroke-width="0.6"/>
<line x1="0" y1="286" x2="1040" y2="286" stroke="#15273c" stroke-width="0.6"/>
<line x1="0" y1="312" x2="1040" y2="312" stroke="#15273c" stroke-width="0.6"/>
<line x1="0" y1="338" x2="1040" y2="338" stroke="#15273c" stroke-width="0.6"/>
<line x1="0" y1="364" x2="1040" y2="364" stroke="#15273c" stroke-width="0.6"/>
<line x1="0" y1="390" x2="1040" y2="390" stroke="#15273c" stroke-width="0.6"/>
<line x1="0" y1="416" x2="1040" y2="416" stroke="#15273c" stroke-width="0.6"/>
<line x1="0" y1="442" x2="1040" y2="442" stroke="#15273c" stroke-width="0.6"/>
<line x1="0" y1="468" x2="1040" y2="468" stroke="#15273c" stroke-width="0.6"/>
<line x1="0" y1="494" x2="1040" y2="494" stroke="#15273c" stroke-width="0.6"/>
<line x1="0" y1="520" x2="1040" y2="520" stroke="#15273c" stroke-width="0.6"/>
<line x1="0" y1="546" x2="1040" y2="546" stroke="#15273c" stroke-width="0.6"/>
<line x1="0" y1="572" x2="1040" y2="572" stroke="#15273c" stroke-width="0.6"/>
<line x1="0" y1="598" x2="1040" y2="598" stroke="#15273c" stroke-width="0.6"/>
<line x1="0" y1="624" x2="1040" y2="624" stroke="#15273c" stroke-width="0.6"/>
<line x1="0" y1="650" x2="1040" y2="650" stroke="#15273c" stroke-width="0.6"/>
<line x1="0" y1="676" x2="1040" y2="676" stroke="#15273c" stroke-width="0.6"/>
<line x1="0" y1="702" x2="1040" y2="702" stroke="#15273c" stroke-width="0.6"/>
<line x1="0" y1="728" x2="1040" y2="728" stroke="#15273c" stroke-width="0.6"/>
<line x1="0" y1="754" x2="1040" y2="754" stroke="#15273c" stroke-width="0.6"/>
<line x1="0" y1="780" x2="1040" y2="780" stroke="#15273c" stroke-width="0.6"/>
<line x1="0" y1="806" x2="1040" y2="806" stroke="#15273c" stroke-width="0.6"/>
<line x1="0" y1="832" x2="1040" y2="832" stroke="#15273c" stroke-width="0.6"/>
<line x1="0" y1="858" x2="1040" y2="858" stroke="#15273c" stroke-width="0.6"/>
<line x1="0" y1="884" x2="1040" y2="884" stroke="#15273c" stroke-width="0.6"/>
<line x1="0" y1="910" x2="1040" y2="910" stroke="#15273c" stroke-width="0.6"/>
<line x1="0" y1="936" x2="1040" y2="936" stroke="#15273c" stroke-width="0.6"/>
<line x1="0" y1="962" x2="1040" y2="962" stroke="#15273c" stroke-width="0.6"/>
<line x1="0" y1="988" x2="1040" y2="988" stroke="#15273c" stroke-width="0.6"/>
<line x1="0" y1="1014" x2="1040" y2="1014" stroke="#15273c" stroke-width="0.6"/>
<line x1="0" y1="1040" x2="1040" y2="1040" stroke="#15273c" stroke-width="0.6"/>
<line x1="0" y1="1066" x2="1040" y2="1066" stroke="#15273c" stroke-width="0.6"/>
<line x1="0" y1="1092" x2="1040" y2="1092" stroke="#15273c" stroke-width="0.6"/>
<line x1="0" y1="1118" x2="1040" y2="1118" stroke="#15273c" stroke-width="0.6"/>
<line x1="0" y1="1144" x2="1040" y2="1144" stroke="#15273c" stroke-width="0.6"/>
<line x1="0" y1="1170" x2="1040" y2="1170" stroke="#15273c" stroke-width="0.6"/>
<line x1="0" y1="1196" x2="1040" y2="1196" stroke="#15273c" stroke-width="0.6"/>
<line x1="0" y1="1222" x2="1040" y2="1222" stroke="#15273c" stroke-width="0.6"/>
<line x1="0" y1="1248" x2="1040" y2="1248" stroke="#15273c" stroke-width="0.6"/>
<line x1="0" y1="1274" x2="1040" y2="1274" stroke="#15273c" stroke-width="0.6"/>
<line x1="0" y1="1300" x2="1040" y2="1300" stroke="#15273c" stroke-width="0.6"/>
<line x1="0" y1="1326" x2="1040" y2="1326" stroke="#15273c" stroke-width="0.6"/>
<line x1="0" y1="1352" x2="1040" y2="1352" stroke="#15273c" stroke-width="0.6"/>
<text x="24" y="40" font-family="ui-monospace, Menlo, monospace" font-size="22" fill="#dceeff" font-weight="700" text-anchor="start">LLM ARCHITECTURE ATLAS — SHEET GLM-01</text>
<text x="24" y="70" font-family="ui-monospace, Menlo, monospace" font-size="12" fill="#8fb4d4" font-weight="400" text-anchor="start">MODEL zai-org/GLM-5.3-Flash · REV f93128cf · SCALE none · DRAWN from pinned config</text>
<text x="455" y="1270" font-family="ui-monospace, Menlo, monospace" font-size="13" fill="#8fb4d4" font-weight="400" text-anchor="middle">Sample input text</text>
<line x1="455" y1="1256" x2="455" y2="1214" stroke="#9fd4f5" stroke-width="1.6" marker-end="url(#ar-b)"/>
<rect x="375" y="1170" width="160" height="36" rx="0" fill="#0d1a2b" stroke="#9fd4f5" stroke-width="1.6"/>
<text x="455" y="1194" font-family="Helvetica, Arial, sans-serif" font-size="14" fill="#dceeff" font-weight="400" text-anchor="middle">Tokenized text</text>
<line x1="455" y1="1170" x2="455" y2="1134" stroke="#9fd4f5" stroke-width="1.6" marker-end="url(#ar-b)"/>
<rect x="350" y="1090" width="210" height="44" rx="0" fill="#0d1a2b" stroke="#9fd4f5" stroke-width="1.6"/>
<text x="455" y="1117" font-family="Helvetica, Arial, sans-serif" font-size="14" fill="#dceeff" font-weight="400" text-anchor="middle">Token embedding layer</text>
<rect x="288" y="250" width="334" height="800" rx="6" fill="none" stroke="#67b7e8" stroke-width="1.8"/>
<rect x="316" y="304" width="278" height="707" rx="2" fill="none" stroke="#67b7e8" stroke-width="1.6"/>
<text x="278" y="650" font-family="Helvetica, Arial, sans-serif" font-size="17" fill="#ffb454" font-weight="700" text-anchor="end">45 ×</text>
<polyline points="284,290 292,640 284,1010" fill="none" stroke="#ffb454" stroke-width="1.6"/>
<rect x="342" y="855" width="226" height="38" rx="0" fill="#0d1a2b" stroke="#9fd4f5" stroke-width="1.6"/>
<text x="455" y="879" font-family="Helvetica, Arial, sans-serif" font-size="14" fill="#dceeff" font-weight="600" text-anchor="middle">RMSNorm 1</text>
<rect x="342" y="800" width="226" height="30" rx="0" fill="#0d1a2b" stroke="#7ee0c3" stroke-width="1.6"/>
<text x="455" y="820" font-family="Helvetica, Arial, sans-serif" font-size="13" fill="#dceeff" font-weight="600" text-anchor="middle">mHC mixer</text>
<rect x="342" y="675" width="226" height="108" rx="0" fill="#0d1a2b" stroke="#ffb454" stroke-width="1.6"/>
<text x="455" y="734" font-family="Helvetica, Arial, sans-serif" font-size="14" fill="#ffd9a8" font-weight="600" text-anchor="middle"></text>
<text x="455" y="701" font-family="Helvetica, Arial, sans-serif" font-size="13.5" fill="#ffd9a8" font-weight="600" text-anchor="middle">Multi-head Latent Attention (MLA)</text>
<text x="455" y="720" font-family="Helvetica, Arial, sans-serif" font-size="13.5" fill="#ffd9a8" font-weight="400" text-anchor="middle">w/ DeepSeek Sparse Attention (DSA)</text>
<text x="455" y="739" font-family="Helvetica, Arial, sans-serif" font-size="13.5" fill="#ffd9a8" font-weight="400" text-anchor="middle">or Kimi Delta Attention (KDA)</text>
<text x="455" y="761" font-family="ui-monospace, Menlo, monospace" font-size="12" fill="#ffd9a8" font-weight="400" text-anchor="middle">schedule K,K,K,D ×11 + K</text>
<circle cx="455" cy="640" r="11" fill="#0d1a2b" stroke="#9fd4f5" stroke-width="1.6"/><line x1="449" y1="640" x2="461" y2="640" stroke="#9fd4f5" stroke-width="1.6"/><line x1="455" y1="634" x2="455" y2="646" stroke="#9fd4f5" stroke-width="1.6"/>
<rect x="342" y="575" width="226" height="38" rx="0" fill="#0d1a2b" stroke="#9fd4f5" stroke-width="1.6"/>
<text x="455" y="599" font-family="Helvetica, Arial, sans-serif" font-size="14" fill="#dceeff" font-weight="600" text-anchor="middle">RMSNorm 2</text>
<rect x="342" y="520" width="226" height="30" rx="0" fill="#0d1a2b" stroke="#7ee0c3" stroke-width="1.6"/>
<text x="455" y="540" font-family="Helvetica, Arial, sans-serif" font-size="13" fill="#dceeff" font-weight="600" text-anchor="middle">mHC mixer</text>
<rect x="342" y="420" width="226" height="74" rx="0" fill="#0d1a2b" stroke="#9fd4f5" stroke-width="1.6"/>
<text x="455" y="462" font-family="Helvetica, Arial, sans-serif" font-size="14" fill="#dceeff" font-weight="600" text-anchor="middle"></text>
<text x="455" y="450" font-family="Helvetica, Arial, sans-serif" font-size="14" fill="#dceeff" font-weight="600" text-anchor="middle">MoE / dense FFN</text>
<text x="455" y="470" font-family="ui-monospace, Menlo, monospace" font-size="12" fill="#8fb4d4" font-weight="400" text-anchor="middle">first 3 dense, then 42 MoE</text>
<rect x="342" y="350" width="226" height="30" rx="0" fill="#0d1a2b" stroke="#7ee0c3" stroke-width="1.6"/>
<text x="455" y="370" font-family="Helvetica, Arial, sans-serif" font-size="13" fill="#dceeff" font-weight="600" text-anchor="middle">mHC mixer</text>
<line x1="455" y1="1090" x2="455" y2="893" stroke="#9fd4f5" stroke-width="1.6" marker-end="url(#ar-b)"/>
<line x1="455" y1="855" x2="455" y2="830" stroke="#9fd4f5" stroke-width="1.6" marker-end="url(#ar-b)"/>
<line x1="455" y1="800" x2="455" y2="783" stroke="#9fd4f5" stroke-width="1.6" marker-end="url(#ar-b)"/>
<line x1="455" y1="675" x2="455" y2="651" stroke="#9fd4f5" stroke-width="1.6" marker-end="url(#ar-b)"/>
<line x1="455" y1="629" x2="455" y2="613" stroke="#9fd4f5" stroke-width="1.6" marker-end="url(#ar-b)"/>
<line x1="455" y1="575" x2="455" y2="550" stroke="#9fd4f5" stroke-width="1.6" marker-end="url(#ar-b)"/>
<line x1="455" y1="520" x2="455" y2="494" stroke="#9fd4f5" stroke-width="1.6" marker-end="url(#ar-b)"/>
<line x1="455" y1="420" x2="455" y2="380" stroke="#9fd4f5" stroke-width="1.6" marker-end="url(#ar-b)"/>
<line x1="455" y1="350" x2="455" y2="304" stroke="#9fd4f5" stroke-width="1.6" marker-end="url(#ar-b)"/>
<line x1="326" y1="365" x2="326" y2="815" stroke="#7ee0c3" stroke-width="1.4"/>
<line x1="326" y1="815" x2="342" y2="815" stroke="#7ee0c3" stroke-width="1.4"/>
<line x1="326" y1="365" x2="342" y2="365" stroke="#7ee0c3" stroke-width="1.4"/>
<line x1="331" y1="365" x2="331" y2="815" stroke="#7ee0c3" stroke-width="1.4"/>
<line x1="331" y1="815" x2="342" y2="815" stroke="#7ee0c3" stroke-width="1.4"/>
<line x1="331" y1="365" x2="342" y2="365" stroke="#7ee0c3" stroke-width="1.4"/>
<line x1="336" y1="365" x2="336" y2="815" stroke="#7ee0c3" stroke-width="1.4"/>
<line x1="336" y1="815" x2="342" y2="815" stroke="#7ee0c3" stroke-width="1.4"/>
<line x1="336" y1="365" x2="342" y2="365" stroke="#7ee0c3" stroke-width="1.4"/>
<line x1="341" y1="365" x2="341" y2="815" stroke="#7ee0c3" stroke-width="1.4"/>
<line x1="341" y1="815" x2="342" y2="815" stroke="#7ee0c3" stroke-width="1.4"/>
<line x1="341" y1="365" x2="342" y2="365" stroke="#7ee0c3" stroke-width="1.4"/>
<line x1="455" y1="250" x2="455" y2="234" stroke="#9fd4f5" stroke-width="1.6" marker-end="url(#ar-b)"/>
<rect x="365" y="190" width="180" height="44" rx="0" fill="#0d1a2b" stroke="#9fd4f5" stroke-width="1.6"/>
<text x="455" y="217" font-family="Helvetica, Arial, sans-serif" font-size="14" fill="#dceeff" font-weight="400" text-anchor="middle">Final RMSNorm</text>
<line x1="455" y1="190" x2="455" y2="154" stroke="#9fd4f5" stroke-width="1.6" marker-end="url(#ar-b)"/>
<rect x="360" y="110" width="190" height="44" rx="0" fill="#0d1a2b" stroke="#9fd4f5" stroke-width="1.6"/>
<text x="455" y="137" font-family="Helvetica, Arial, sans-serif" font-size="14" fill="#dceeff" font-weight="400" text-anchor="middle">Linear output layer</text>
<text x="24" y="136" font-family="Helvetica, Arial, sans-serif" font-size="13.5" fill="#dceeff" font-weight="600" text-anchor="start">Vocabulary size of 154,880</text>
<line x1="206.20000000000002" y1="131" x2="356" y2="131" stroke="#ffb454" stroke-width="1.3" stroke-dasharray="6 4"/>
<text x="24" y="705" font-family="Helvetica, Arial, sans-serif" font-size="13.5" fill="#dceeff" font-weight="600" text-anchor="start">34 KDA layers</text>
<text x="24" y="722" font-family="Helvetica, Arial, sans-serif" font-size="13.5" fill="#dceeff" font-weight="600" text-anchor="start">11 MLA+DSA layers</text>
<line x1="145.9" y1="700" x2="338" y2="700" stroke="#ffb454" stroke-width="1.3" stroke-dasharray="6 4"/>
<text x="24" y="753" font-family="Helvetica, Arial, sans-serif" font-size="13.5" fill="#dceeff" font-weight="600" text-anchor="start">64 attention heads</text>
<line x1="152.60000000000002" y1="748" x2="338" y2="748" stroke="#ffb454" stroke-width="1.3" stroke-dasharray="6 4"/>
<text x="24" y="1106" font-family="Helvetica, Arial, sans-serif" font-size="13.5" fill="#dceeff" font-weight="600" text-anchor="start">Embedding dimension of 4,096</text>
<line x1="219.6" y1="1101" x2="346" y2="1101" stroke="#ffb454" stroke-width="1.3" stroke-dasharray="6 4"/>
<text x="24" y="1156" font-family="Helvetica, Arial, sans-serif" font-size="13.5" fill="#dceeff" font-weight="600" text-anchor="start">Supported context 1M tokens</text>
<line x1="212.9" y1="1151" x2="346" y2="1151" stroke="#ffb454" stroke-width="1.3" stroke-dasharray="6 4"/>
<text x="24" y="454" font-family="Helvetica, Arial, sans-serif" font-size="13" fill="#8fb4d4" font-weight="400" text-anchor="start">First 3 blocks use dense</text>
<text x="24" y="471" font-family="Helvetica, Arial, sans-serif" font-size="13" fill="#8fb4d4" font-weight="400" text-anchor="start">SwiGLU FFNs instead of MoEs</text>
<line x1="192" y1="466" x2="312" y2="466" stroke="#ffb454" stroke-width="1.3" stroke-dasharray="6 4"/>
<rect x="640" y="110" width="372" height="300" rx="0" fill="#0d1a2b" stroke="#ffb454" stroke-dasharray="6 4" stroke-width="1.6"/>
<text x="656" y="136" font-family="Helvetica, Arial, sans-serif" font-size="15" fill="#dceeff" font-weight="700" text-anchor="start">MoE layer (sparse blocks 3–44)</text>
<circle cx="826" cy="184" r="11" fill="#0d1a2b" stroke="#9fd4f5" stroke-width="1.6"/><line x1="820" y1="184" x2="832" y2="184" stroke="#9fd4f5" stroke-width="1.6"/><line x1="826" y1="178" x2="826" y2="190" stroke="#9fd4f5" stroke-width="1.6"/>
<rect x="670" y="240" width="140" height="36" rx="0" fill="#0d1a2b" stroke="#9fd4f5" stroke-width="1.3"/>
<text x="740" y="262.5" font-family="Helvetica, Arial, sans-serif" font-size="12.5" fill="#dceeff" font-weight="600" text-anchor="middle">Feed forward</text>
<rect x="842" y="240" width="140" height="36" rx="0" fill="#0d1a2b" stroke="#9fd4f5" stroke-width="1.3"/>
<text x="912" y="262.5" font-family="Helvetica, Arial, sans-serif" font-size="12.5" fill="#dceeff" font-weight="600" text-anchor="middle">Feed forward</text>
<text x="826" y="262" font-family="Helvetica, Arial, sans-serif" font-size="16" fill="#8fb4d4" font-weight="400" text-anchor="middle">…</text>
<rect x="768" y="206" width="24" height="18" rx="3" fill="#dceeff" stroke="#dceeff" stroke-width="0"/>
<text x="780" y="219" font-family="Helvetica, Arial, sans-serif" font-size="11" fill="#0d1a2b" font-weight="700" text-anchor="middle">1</text>
<rect x="860" y="206" width="34" height="18" rx="3" fill="#ffb454" stroke="#ffb454" stroke-width="0"/>
<text x="877" y="219" font-family="Helvetica, Arial, sans-serif" font-size="11" fill="#ffffff" font-weight="700" text-anchor="middle">288</text>
<rect x="771" y="326" width="110" height="36" rx="0" fill="#0d1a2b" stroke="#ffb454" stroke-width="1.3"/>
<text x="826" y="348.5" font-family="Helvetica, Arial, sans-serif" font-size="12.5" fill="#ffb454" font-weight="600" text-anchor="middle">Router</text>
<polyline points="826,326 740,276" fill="none" stroke="#9fd4f5" stroke-width="1.6" marker-end="url(#ar-b)"/>
<polyline points="826,326 912,276" fill="none" stroke="#9fd4f5" stroke-width="1.6" marker-end="url(#ar-b)"/>
<polyline points="740,240 818,192" fill="none" stroke="#9fd4f5" stroke-width="1.6" marker-end="url(#ar-b)"/>
<polyline points="912,240 834,192" fill="none" stroke="#9fd4f5" stroke-width="1.6" marker-end="url(#ar-b)"/>
<line x1="826" y1="173" x2="826" y2="150" stroke="#9fd4f5" stroke-width="1.6" marker-end="url(#ar-b)"/>
<text x="656" y="392" font-family="ui-monospace, Menlo, monospace" font-size="12" fill="#8fb4d4" font-weight="400" text-anchor="start">1 shared expert always on · top-8 of 288 routed</text>
<polyline points="568,456 626,456 626,260 640,260" fill="none" stroke="#ffb454" stroke-width="1.3" stroke-dasharray="6 4"/>
<rect x="640" y="440" width="372" height="210" rx="0" fill="#0d1a2b" stroke="#ffb454" stroke-dasharray="6 4" stroke-width="1.6"/>
<text x="656" y="466" font-family="Helvetica, Arial, sans-serif" font-size="15" fill="#dceeff" font-weight="700" text-anchor="start">DSA (1 of 4 layers)</text>
<rect x="664" y="500" width="108" height="40" rx="0" fill="#0d1a2b" stroke="#9fd4f5" stroke-width="1.3"/>
<text x="718" y="524.5" font-family="Helvetica, Arial, sans-serif" font-size="12.5" fill="#dceeff" font-weight="600" text-anchor="middle">Lightning indexer</text>
<rect x="786" y="500" width="92" height="40" rx="0" fill="#0d1a2b" stroke="#9fd4f5" stroke-width="1.3"/>
<text x="832" y="524.5" font-family="Helvetica, Arial, sans-serif" font-size="12.5" fill="#dceeff" font-weight="600" text-anchor="middle">Top-k 2048</text>
<rect x="892" y="500" width="100" height="40" rx="0" fill="#0d1a2b" stroke="#ffb454" stroke-width="1.3"/>
<text x="942" y="524.5" font-family="Helvetica, Arial, sans-serif" font-size="12.5" fill="#ffd9a8" font-weight="600" text-anchor="middle">MLA core</text>
<line x1="772" y1="520" x2="786" y2="520" stroke="#9fd4f5" stroke-width="1.6" marker-end="url(#ar-b)"/>
<line x1="878" y1="520" x2="892" y2="520" stroke="#9fd4f5" stroke-width="1.6" marker-end="url(#ar-b)"/>
<text x="664" y="568" font-family="ui-monospace, Menlo, monospace" font-size="12" fill="#8fb4d4" font-weight="400" text-anchor="start">indexer 32 heads · top-k 2048</text>
<text x="664" y="590" font-family="Helvetica, Arial, sans-serif" font-size="12.5" fill="#8fb4d4" font-weight="400" text-anchor="start">selected KV → latent attention</text>
<text x="664" y="626" font-family="Helvetica, Arial, sans-serif" font-size="12" fill="#8fb4d4" font-weight="400" text-anchor="start">scores all positions, routes sparse KV</text>
<polyline points="568,725 626,725 626,520 640,520" fill="none" stroke="#ffb454" stroke-width="1.3" stroke-dasharray="6 4"/>
<rect x="640" y="680" width="372" height="190" rx="0" fill="#0d1a2b" stroke="#ffb454" stroke-dasharray="6 4" stroke-width="1.6"/>
<text x="656" y="706" font-family="Helvetica, Arial, sans-serif" font-size="15" fill="#dceeff" font-weight="700" text-anchor="start">mHC (manifold-constrained hyper-connections)</text>
<line x1="660" y1="746" x2="702" y2="746" stroke="#7ee0c3" stroke-width="1.5" marker-end="url(#ar-b)"/>
<line x1="808" y1="746" x2="850" y2="746" stroke="#7ee0c3" stroke-width="1.5" marker-end="url(#ar-b)"/>
<line x1="660" y1="762" x2="702" y2="762" stroke="#7ee0c3" stroke-width="1.5" marker-end="url(#ar-b)"/>
<line x1="808" y1="762" x2="850" y2="762" stroke="#7ee0c3" stroke-width="1.5" marker-end="url(#ar-b)"/>
<line x1="660" y1="778" x2="702" y2="778" stroke="#7ee0c3" stroke-width="1.5" marker-end="url(#ar-b)"/>
<line x1="808" y1="778" x2="850" y2="778" stroke="#7ee0c3" stroke-width="1.5" marker-end="url(#ar-b)"/>
<line x1="660" y1="794" x2="702" y2="794" stroke="#7ee0c3" stroke-width="1.5" marker-end="url(#ar-b)"/>
<line x1="808" y1="794" x2="850" y2="794" stroke="#7ee0c3" stroke-width="1.5" marker-end="url(#ar-b)"/>
<rect x="702" y="736" width="106" height="76" rx="0" fill="#0d1a2b" stroke="#7ee0c3" stroke-width="1.3"/>
<text x="755" y="778.5" font-family="Helvetica, Arial, sans-serif" font-size="12.5" fill="#dceeff" font-weight="600" text-anchor="middle"></text>
<text x="755" y="768" font-family="Helvetica, Arial, sans-serif" font-size="12" fill="#dceeff" font-weight="600" text-anchor="middle">mHC mixer</text>
<text x="755" y="786" font-family="Helvetica, Arial, sans-serif" font-size="10.5" fill="#8fb4d4" font-weight="400" text-anchor="middle">(constrained mixing)</text>
<rect x="850" y="746" width="96" height="56" rx="0" fill="#0d1a2b" stroke="#67b7e8" stroke-width="1.3"/>
<text x="898" y="778.5" font-family="Helvetica, Arial, sans-serif" font-size="12.5" fill="#dceeff" font-weight="600" text-anchor="middle"></text>
<text x="898" y="770" font-family="Helvetica, Arial, sans-serif" font-size="12" fill="#dceeff" font-weight="600" text-anchor="middle">Sublayer</text>
<text x="898" y="786" font-family="Helvetica, Arial, sans-serif" font-size="10.5" fill="#8fb4d4" font-weight="400" text-anchor="middle">(attention or MoE)</text>
<rect x="956" y="736" width="44" height="76" rx="0" fill="#0d1a2b" stroke="#7ee0c3" stroke-width="1.3"/>
<text x="978" y="778.5" font-family="Helvetica, Arial, sans-serif" font-size="12.5" fill="#dceeff" font-weight="600" text-anchor="middle"></text>
<text x="978" y="770" font-family="Helvetica, Arial, sans-serif" font-size="11" fill="#dceeff" font-weight="600" text-anchor="middle">mHC</text>
<text x="978" y="784" font-family="Helvetica, Arial, sans-serif" font-size="11" fill="#dceeff" font-weight="600" text-anchor="middle">mixer</text>
<text x="660" y="844" font-family="ui-monospace, Menlo, monospace" font-size="12" fill="#8fb4d4" font-weight="400" text-anchor="start">with 4 parallel residual streams (replaces plain x + F(x))</text>
<polyline points="568,535 626,535 626,774 640,774" fill="none" stroke="#ffb454" stroke-width="1.3" stroke-dasharray="6 4"/>
<text x="640" y="916" font-family="Helvetica, Arial, sans-serif" font-size="14" fill="#ffb454" font-weight="700" text-anchor="start">Resource savings:</text>
<text x="648" y="942" font-family="Helvetica, Arial, sans-serif" font-size="13" fill="#dceeff" font-weight="400" text-anchor="start">• model size 320B total</text>
<text x="648" y="966" font-family="Helvetica, Arial, sans-serif" font-size="13" fill="#dceeff" font-weight="400" text-anchor="start">• only 1 shared + 8 experts active per token</text>
<text x="648" y="990" font-family="Helvetica, Arial, sans-serif" font-size="13" fill="#dceeff" font-weight="400" text-anchor="start">• 18B active (5.6%)</text>
<text x="640" y="1030" font-family="ui-monospace, Menlo, monospace" font-size="11.5" fill="#8fb4d4" font-weight="400" text-anchor="start">Evidence: pinned config f93128cf (exact) +</text>
<text x="640" y="1048" font-family="ui-monospace, Menlo, monospace" font-size="11.5" fill="#8fb4d4" font-weight="400" text-anchor="start">mHC/DSA/KDA papers (mechanism-only)</text>
<line x1="24" y1="1316" x2="70" y2="1316" stroke="#9fd4f5" stroke-width="1.6" marker-end="url(#ar-b)"/>
<text x="78" y="1320" font-family="Helvetica, Arial, sans-serif" font-size="12" fill="#8fb4d4" font-weight="400" text-anchor="start">data flow</text>
<line x1="174" y1="1316" x2="220" y2="1316" stroke="#ffb454" stroke-width="1.6" stroke-dasharray="6 4"/>
<text x="228" y="1320" font-family="Helvetica, Arial, sans-serif" font-size="12" fill="#8fb4d4" font-weight="400" text-anchor="start">zoom callout</text>
<line x1="344" y1="1316" x2="390" y2="1316" stroke="#7ee0c3" stroke-width="1.5"/>
<text x="398" y="1320" font-family="Helvetica, Arial, sans-serif" font-size="12" fill="#8fb4d4" font-weight="400" text-anchor="start">residual stream ×4</text>
<text x="1016" y="1320" font-family="ui-monospace, Menlo, monospace" font-size="12" fill="#8fb4d4" font-weight="400" text-anchor="end">B · engineering-blueprint</text>
</svg>
