<svg xmlns="http://www.w3.org/2000/svg" viewBox="0 0 1060 1620" font-family="Helvetica, Arial, sans-serif">
<defs><marker id="ar" viewBox="0 0 10 10" refX="9" refY="5" markerWidth="7" markerHeight="7" orient="auto-start-reverse"><path d="M,0 L10,5 L0,10 z" fill="#172033"/></marker><marker id="art" viewBox="0 0 10 10" refX="9" refY="5" markerWidth="7" markerHeight="7" orient="auto-start-reverse"><path d="M0,0 L10,5 L0,10 z" fill="#0f766e"/></marker></defs>
<rect x="0" y="0" width="1060" height="1620" rx="10" fill="#f5f7fa" stroke="none" stroke-width="0"/>
<text x="24" y="40" font-size="24" fill="#172033" font-weight="700" text-anchor="start">GLM-5.3-Flash (320B-A18B)</text>
<text x="24" y="62" font-size="12.5" fill="#66707f" font-weight="400" text-anchor="start">nested-containment reading: mechanisms live inside the repeat unit</text>
<text x="24" y="80" font-size="12.5" fill="#66707f" font-weight="400" text-anchor="start">Text decoder shown; vision encoder and MTP head omitted</text>
<rect x="190" y="100" width="220" height="34" rx="10" fill="#ffffff" stroke="#172033" stroke-width="1.5"/>
<text x="300" y="121.5" font-size="13" fill="#172033" font-weight="600" text-anchor="middle">Tokenized text</text>
<line x1="300" y1="134" x2="300" y2="160" stroke="#172033" stroke-width="1.5" marker-end="url(#ar)"/>
<rect x="180" y="160" width="240" height="44" rx="10" fill="#ffffff" stroke="#172033" stroke-width="1.5"/>
<text x="300" y="180" font-size="13" fill="#172033" font-weight="600" text-anchor="middle">Token embedding</text>
<text x="300" y="195" font-size="12" fill="#66707f" font-weight="400" text-anchor="middle">hidden 4,096 · vocab 154,880</text>
<line x1="300" y1="204" x2="300" y2="240" stroke="#172033" stroke-width="1.5" marker-end="url(#ar)"/>
<rect x="180" y="240" width="700" height="1160" rx="14" fill="#ffffff" stroke="#b9c2d2" stroke-width="1.8"/>
<text x="192" y="262" font-size="13.5" fill="#172033" font-weight="700" text-anchor="start">DECODER REPEAT UNIT ×45 (K,K,K,D ×11 + K)</text>
<line x1="300" y1="240" x2="300" y2="290" stroke="#172033" stroke-width="1.5" marker-end="url(#ar)"/>
<rect x="200" y="290" width="200" height="30" rx="10" fill="#ffffff" stroke="#172033" stroke-width="1.5"/>
<text x="300" y="309.5" font-size="12.5" fill="#172033" font-weight="600" text-anchor="middle">H-pre (n→1)</text>
<rect x="200" y="330" width="200" height="44" rx="10" fill="#dbeafe" stroke="#2563eb" stroke-width="1.5"/>
<text x="300" y="350" font-size="12.566137566137565" fill="#172033" font-weight="600" text-anchor="middle">attention slot = sublayer F</text>
<text x="300" y="365" font-size="12" fill="#66707f" font-weight="400" text-anchor="middle">K,K,K,D per 4 layers</text>
<rect x="200" y="384" width="200" height="30" rx="10" fill="#ffffff" stroke="#172033" stroke-width="1.5"/>
<text x="300" y="403.5" font-size="12.5" fill="#172033" font-weight="600" text-anchor="middle">H-post (1→n)</text>
<rect x="200" y="940" width="200" height="30" rx="10" fill="#ffffff" stroke="#172033" stroke-width="1.5"/>
<text x="300" y="959.5" font-size="12.5" fill="#172033" font-weight="600" text-anchor="middle">H-pre (n→1)</text>
<rect x="200" y="980" width="200" height="44" rx="10" fill="#dbeafe" stroke="#2563eb" stroke-width="1.5"/>
<text x="300" y="1000" font-size="13" fill="#172033" font-weight="600" text-anchor="middle">FFN slot = sublayer F</text>
<text x="300" y="1015" font-size="12" fill="#66707f" font-weight="400" text-anchor="middle">3 dense → 42 MoE</text>
<rect x="200" y="1034" width="200" height="30" rx="10" fill="#ffffff" stroke="#172033" stroke-width="1.5"/>
<text x="300" y="1053.5" font-size="12.5" fill="#172033" font-weight="600" text-anchor="middle">H-post (1→n)</text>
<line x1="300" y1="320" x2="300" y2="330" stroke="#172033" stroke-width="1.5" marker-end="url(#ar)"/>
<line x1="300" y1="374" x2="300" y2="384" stroke="#172033" stroke-width="1.5" marker-end="url(#ar)"/>
<line x1="300" y1="970" x2="300" y2="980" stroke="#172033" stroke-width="1.5" marker-end="url(#ar)"/>
<line x1="300" y1="1024" x2="300" y2="1034" stroke="#172033" stroke-width="1.5" marker-end="url(#ar)"/>
<line x1="300" y1="414" x2="300" y2="940" stroke="#0f766e" stroke-width="1.3" marker-end="url(#art)"/>
<rect x="420" y="280" width="440" height="240" rx="10" fill="#ffffff" stroke="#b9c2d2" stroke-width="1.6" stroke-dasharray="4 4"/>
<text x="432" y="300" font-size="13.5" fill="#172033" font-weight="700" text-anchor="start">KDA — 34 layers (Kimi Linear §4 Fig 3)</text>
<rect x="450" y="320" width="380" height="48" rx="10" fill="#ffffff" stroke="#172033" stroke-width="1.5"/>
<text x="640" y="342" font-size="12.5" fill="#172033" font-weight="600" text-anchor="middle">Q/K/V ShortConv</text>
<text x="640" y="357" font-size="12" fill="#66707f" font-weight="400" text-anchor="middle">kernel 4</text>
<rect x="450" y="394" width="380" height="48" rx="10" fill="#dbeafe" stroke="#2563eb" stroke-width="1.5"/>
<text x="640" y="416" font-size="12.5" fill="#172033" font-weight="600" text-anchor="middle">KDA core</text>
<text x="640" y="431" font-size="12" fill="#66707f" font-weight="400" text-anchor="middle">decay + recurrent state</text>
<rect x="450" y="468" width="380" height="48" rx="10" fill="#ffffff" stroke="#172033" stroke-width="1.5"/>
<text x="640" y="496.5" font-size="12.5" fill="#172033" font-weight="600" text-anchor="middle">output gate</text>
<line x1="640" y1="368" x2="640" y2="394" stroke="#172033" stroke-width="1.5" marker-end="url(#ar)"/>
<line x1="640" y1="442" x2="640" y2="468" stroke="#172033" stroke-width="1.5" marker-end="url(#ar)"/>
<rect x="420" y="540" width="440" height="300" rx="10" fill="#ffffff" stroke="#b9c2d2" stroke-width="1.6" stroke-dasharray="4 4"/>
<text x="432" y="560" font-size="13.5" fill="#172033" font-weight="700" text-anchor="start">DSA — 11 layers, 1 per 4 (V3.2 §2.1 Fig 2)</text>
<rect x="480" y="580" width="320" height="48" rx="10" fill="#ffffff" stroke="#172033" stroke-width="1.5"/>
<text x="640" y="602" font-size="12.5" fill="#172033" font-weight="600" text-anchor="middle">Lightning indexer</text>
<text x="640" y="617" font-size="12" fill="#66707f" font-weight="400" text-anchor="middle">32 heads</text>
<rect x="480" y="654" width="320" height="48" rx="10" fill="#ffffff" stroke="#172033" stroke-width="1.5"/>
<text x="640" y="676" font-size="12.5" fill="#172033" font-weight="600" text-anchor="middle">Top-k</text>
<text x="640" y="691" font-size="12" fill="#66707f" font-weight="400" text-anchor="middle">k=2048</text>
<rect x="480" y="728" width="320" height="48" rx="10" fill="#dbeafe" stroke="#2563eb" stroke-width="1.5"/>
<text x="640" y="756.5" font-size="12.5" fill="#172033" font-weight="600" text-anchor="middle">selected KV</text>
<rect x="480" y="802" width="320" height="48" rx="10" fill="#ffffff" stroke="#172033" stroke-width="1.5"/>
<text x="640" y="824" font-size="12.5" fill="#172033" font-weight="600" text-anchor="middle">MLA core</text>
<text x="640" y="839" font-size="12" fill="#66707f" font-weight="400" text-anchor="middle">latent KV</text>
<line x1="640" y1="628" x2="640" y2="654" stroke="#172033" stroke-width="1.5" marker-end="url(#ar)"/>
<line x1="640" y1="702" x2="640" y2="728" stroke="#172033" stroke-width="1.5" marker-end="url(#ar)"/>
<line x1="640" y1="776" x2="640" y2="802" stroke="#172033" stroke-width="1.5" marker-end="url(#ar)"/>
<rect x="420" y="860" width="440" height="240" rx="10" fill="#ffffff" stroke="#b9c2d2" stroke-width="1.6" stroke-dasharray="4 4"/>
<text x="432" y="880" font-size="13.5" fill="#172033" font-weight="700" text-anchor="start">MoE — layers 3–44</text>
<rect x="582.2" y="904" width="115.60000000000001" height="34" rx="10" fill="#ffffff" stroke="#172033" stroke-width="1.5"/>
<text x="640" y="925.5" font-size="12.5" fill="#172033" font-weight="600" text-anchor="middle">Router</text>
<rect x="470" y="962" width="158" height="46" rx="10" fill="#ffffff" stroke="#172033" stroke-width="1.5"/>
<text x="549" y="983" font-size="12.5" fill="#172033" font-weight="600" text-anchor="middle">Routed experts</text>
<text x="549" y="998" font-size="12" fill="#66707f" font-weight="400" text-anchor="middle">288 · top-8</text>
<rect x="652" y="962" width="158" height="46" rx="10" fill="#ffffff" stroke="#172033" stroke-width="1.5"/>
<text x="731" y="983" font-size="12.5" fill="#172033" font-weight="600" text-anchor="middle">Shared expert</text>
<text x="731" y="998" font-size="12" fill="#66707f" font-weight="400" text-anchor="middle">1 always on</text>
<circle cx="640" cy="1043" r="10" fill="#ffffff" stroke="#172033" stroke-width="1.5"/>
<line x1="635" y1="1043" x2="645" y2="1043" stroke="#172033" stroke-width="1.5"/>
<line x1="640" y1="1038" x2="640" y2="1048" stroke="#172033" stroke-width="1.5"/>
<line x1="640" y1="938" x2="549" y2="962" stroke="#172033" stroke-width="1.4" marker-end="url(#ar)"/>
<line x1="640" y1="938" x2="731" y2="962" stroke="#172033" stroke-width="1.4" marker-end="url(#ar)"/>
<line x1="549" y1="1008" x2="640" y2="1032" stroke="#172033" stroke-width="1.4" marker-end="url(#ar)"/>
<line x1="731" y1="1008" x2="640" y2="1032" stroke="#172033" stroke-width="1.4" marker-end="url(#ar)"/>
<rect x="420" y="1120" width="440" height="240" rx="10" fill="#ffffff" stroke="#b9c2d2" stroke-width="1.6" stroke-dasharray="4 4"/>
<text x="432" y="1140" font-size="13.5" fill="#172033" font-weight="700" text-anchor="start">mHC — 4 streams, one shared sublayer pass (Fig 1c)</text>
<rect x="498" y="1162" width="8" height="150" rx="10" fill="#0f766e" stroke="#0f766e" stroke-width="1"/>
<text x="508" y="1328" font-size="12" fill="#0f766e" font-weight="400" text-anchor="start">H-res mix (skip, across streams)</text>
<rect x="524" y="1223" width="74" height="34" rx="10" fill="#dbeafe" stroke="#2563eb" stroke-width="1.5"/>
<text x="561" y="1244.5" font-size="12.5" fill="#172033" font-weight="600" text-anchor="middle">H-pre</text>
<rect x="612" y="1223" width="74" height="34" rx="10" fill="#ffffff" stroke="#172033" stroke-width="1.5"/>
<text x="649" y="1244.5" font-size="12.5" fill="#172033" font-weight="600" text-anchor="middle">F</text>
<rect x="700" y="1223" width="74" height="34" rx="10" fill="#dbeafe" stroke="#2563eb" stroke-width="1.5"/>
<text x="737" y="1244.5" font-size="12.5" fill="#172033" font-weight="600" text-anchor="middle">H-post</text>
<line x1="598" y1="1240" x2="612" y2="1240" stroke="#172033" stroke-width="1.5" marker-end="url(#ar)"/>
<line x1="686" y1="1240" x2="700" y2="1240" stroke="#172033" stroke-width="1.5" marker-end="url(#ar)"/>
<text x="442" y="1187" font-size="12" fill="#0f766e" font-weight="600" text-anchor="start">S1</text>
<line x1="444" y1="1183" x2="462" y2="1183" stroke="#0f766e" stroke-width="1.3"/>
<circle cx="466" cy="1183" r="3" fill="#0f766e"/>
<line x1="470" y1="1183" x2="524" y2="1227.25" stroke="#0f766e" stroke-width="1.2" marker-end="url(#art)"/>
<line x1="470" y1="1183" x2="498" y2="1183" stroke="#0f766e" stroke-width="1.2" marker-end="url(#art)"/>
<circle cx="800" cy="1183" r="10" fill="#ffffff" stroke="#172033" stroke-width="1.5"/>
<line x1="795" y1="1183" x2="805" y2="1183" stroke="#172033" stroke-width="1.5"/>
<line x1="800" y1="1178" x2="800" y2="1188" stroke="#172033" stroke-width="1.5"/>
<line x1="506" y1="1183" x2="790" y2="1183" stroke="#0f766e" stroke-width="1.2" marker-end="url(#art)"/>
<line x1="774" y1="1227.25" x2="792" y2="1179" stroke="#0f766e" stroke-width="1.2" marker-end="url(#art)"/>
<line x1="810" y1="1183" x2="834" y2="1183" stroke="#0f766e" stroke-width="1.3" marker-end="url(#art)"/>
<text x="442" y="1221" font-size="12" fill="#0f766e" font-weight="600" text-anchor="start">S2</text>
<line x1="444" y1="1217" x2="462" y2="1217" stroke="#0f766e" stroke-width="1.3"/>
<circle cx="466" cy="1217" r="3" fill="#0f766e"/>
<line x1="470" y1="1217" x2="524" y2="1235.75" stroke="#0f766e" stroke-width="1.2" marker-end="url(#art)"/>
<line x1="470" y1="1217" x2="498" y2="1217" stroke="#0f766e" stroke-width="1.2" marker-end="url(#art)"/>
<circle cx="800" cy="1217" r="10" fill="#ffffff" stroke="#172033" stroke-width="1.5"/>
<line x1="795" y1="1217" x2="805" y2="1217" stroke="#172033" stroke-width="1.5"/>
<line x1="800" y1="1212" x2="800" y2="1222" stroke="#172033" stroke-width="1.5"/>
<line x1="506" y1="1217" x2="790" y2="1217" stroke="#0f766e" stroke-width="1.2" marker-end="url(#art)"/>
<line x1="774" y1="1235.75" x2="792" y2="1213" stroke="#0f766e" stroke-width="1.2" marker-end="url(#art)"/>
<line x1="810" y1="1217" x2="834" y2="1217" stroke="#0f766e" stroke-width="1.3" marker-end="url(#art)"/>
<text x="442" y="1255" font-size="12" fill="#0f766e" font-weight="600" text-anchor="start">S3</text>
<line x1="444" y1="1251" x2="462" y2="1251" stroke="#0f766e" stroke-width="1.3"/>
<circle cx="466" cy="1251" r="3" fill="#0f766e"/>
<line x1="470" y1="1251" x2="524" y2="1244.25" stroke="#0f766e" stroke-width="1.2" marker-end="url(#art)"/>
<line x1="470" y1="1251" x2="498" y2="1251" stroke="#0f766e" stroke-width="1.2" marker-end="url(#art)"/>
<circle cx="800" cy="1251" r="10" fill="#ffffff" stroke="#172033" stroke-width="1.5"/>
<line x1="795" y1="1251" x2="805" y2="1251" stroke="#172033" stroke-width="1.5"/>
<line x1="800" y1="1246" x2="800" y2="1256" stroke="#172033" stroke-width="1.5"/>
<line x1="506" y1="1251" x2="790" y2="1251" stroke="#0f766e" stroke-width="1.2" marker-end="url(#art)"/>
<line x1="774" y1="1244.25" x2="792" y2="1247" stroke="#0f766e" stroke-width="1.2" marker-end="url(#art)"/>
<line x1="810" y1="1251" x2="834" y2="1251" stroke="#0f766e" stroke-width="1.3" marker-end="url(#art)"/>
<text x="442" y="1289" font-size="12" fill="#0f766e" font-weight="600" text-anchor="start">S4</text>
<line x1="444" y1="1285" x2="462" y2="1285" stroke="#0f766e" stroke-width="1.3"/>
<circle cx="466" cy="1285" r="3" fill="#0f766e"/>
<line x1="470" y1="1285" x2="524" y2="1252.75" stroke="#0f766e" stroke-width="1.2" marker-end="url(#art)"/>
<line x1="470" y1="1285" x2="498" y2="1285" stroke="#0f766e" stroke-width="1.2" marker-end="url(#art)"/>
<circle cx="800" cy="1285" r="10" fill="#ffffff" stroke="#172033" stroke-width="1.5"/>
<line x1="795" y1="1285" x2="805" y2="1285" stroke="#172033" stroke-width="1.5"/>
<line x1="800" y1="1280" x2="800" y2="1290" stroke="#172033" stroke-width="1.5"/>
<line x1="506" y1="1285" x2="790" y2="1285" stroke="#0f766e" stroke-width="1.2" marker-end="url(#art)"/>
<line x1="774" y1="1252.75" x2="792" y2="1281" stroke="#0f766e" stroke-width="1.2" marker-end="url(#art)"/>
<line x1="810" y1="1285" x2="834" y2="1285" stroke="#0f766e" stroke-width="1.3" marker-end="url(#art)"/>
<line x1="400" y1="352" x2="420" y2="352" stroke="#66707f" stroke-width="1.2" stroke-dasharray="4 4"/>
<polyline points="400,360 410,360 410,590 420,590" fill="none" stroke="#66707f" stroke-width="1.2" stroke-dasharray="4 4"/>
<line x1="400" y1="1002" x2="420" y2="1002" stroke="#66707f" stroke-width="1.2" stroke-dasharray="4 4"/>
<line x1="300" y1="1024" x2="300" y2="1400" stroke="#172033" stroke-width="1.5" marker-end="url(#ar)"/>
<line x1="154" y1="385" x2="176" y2="385" stroke="#0f766e" stroke-width="1.3" marker-end="url(#art)"/>
<text x="148" y="389" font-size="12" fill="#0f766e" font-weight="600" text-anchor="end">S1</text>
<line x1="884" y1="385" x2="906" y2="385" stroke="#0f766e" stroke-width="1.3" marker-end="url(#art)"/>
<line x1="154" y1="675" x2="176" y2="675" stroke="#0f766e" stroke-width="1.3" marker-end="url(#art)"/>
<text x="148" y="679" font-size="12" fill="#0f766e" font-weight="600" text-anchor="end">S2</text>
<line x1="884" y1="675" x2="906" y2="675" stroke="#0f766e" stroke-width="1.3" marker-end="url(#art)"/>
<line x1="154" y1="965" x2="176" y2="965" stroke="#0f766e" stroke-width="1.3" marker-end="url(#art)"/>
<text x="148" y="969" font-size="12" fill="#0f766e" font-weight="600" text-anchor="end">S3</text>
<line x1="884" y1="965" x2="906" y2="965" stroke="#0f766e" stroke-width="1.3" marker-end="url(#art)"/>
<line x1="154" y1="1255" x2="176" y2="1255" stroke="#0f766e" stroke-width="1.3" marker-end="url(#art)"/>
<text x="148" y="1259" font-size="12" fill="#0f766e" font-weight="600" text-anchor="end">S4</text>
<line x1="884" y1="1255" x2="906" y2="1255" stroke="#0f766e" stroke-width="1.3" marker-end="url(#art)"/>
<line x1="190" y1="385" x2="190" y2="1255" stroke="#0f766e" stroke-width="1.1"/>
<line x1="870" y1="385" x2="870" y2="1255" stroke="#0f766e" stroke-width="1.1"/>
<line x1="300" y1="1400" x2="300" y2="1430" stroke="#172033" stroke-width="1.5" marker-end="url(#ar)"/>
<rect x="190" y="1430" width="220" height="34" rx="10" fill="#ffffff" stroke="#172033" stroke-width="1.5"/>
<text x="300" y="1451.5" font-size="13" fill="#172033" font-weight="600" text-anchor="middle">Final RMSNorm</text>
<line x1="300" y1="1464" x2="300" y2="1490" stroke="#172033" stroke-width="1.5" marker-end="url(#ar)"/>
<rect x="180" y="1490" width="240" height="44" rx="10" fill="#ffffff" stroke="#172033" stroke-width="1.5"/>
<text x="300" y="1510" font-size="13" fill="#172033" font-weight="600" text-anchor="middle">Linear output</text>
<text x="300" y="1525" font-size="12" fill="#66707f" font-weight="400" text-anchor="middle">vocab 154,880</text>
<text x="24" y="340" font-size="12" fill="#172033" font-weight="600" text-anchor="start">34 KDA layers</text>
<line x1="108" y1="336" x2="140" y2="336" stroke="#66707f" stroke-width="1.2" stroke-dasharray="4 4"/>
<text x="24" y="640" font-size="12" fill="#172033" font-weight="600" text-anchor="start">11 MLA/DSA layers</text>
<line x1="132" y1="636" x2="140" y2="636" stroke="#66707f" stroke-width="1.2" stroke-dasharray="4 4"/>
<text x="24" y="840" font-size="12" fill="#172033" font-weight="600" text-anchor="start">first 3 dense</text>
<line x1="108" y1="836" x2="140" y2="836" stroke="#66707f" stroke-width="1.2" stroke-dasharray="4 4"/>
<text x="1036" y="600" font-size="12" fill="#172033" font-weight="600" text-anchor="end">64 heads</text>
<line x1="920" y1="596" x2="982" y2="596" stroke="#66707f" stroke-width="1.2" stroke-dasharray="4 4"/>
<text x="1036" y="920" font-size="12" fill="#172033" font-weight="600" text-anchor="end">context 1M tokens</text>
<line x1="920" y1="916" x2="928" y2="916" stroke="#66707f" stroke-width="1.2" stroke-dasharray="4 4"/>
<text x="1036" y="1330" font-size="12" fill="#172033" font-weight="600" text-anchor="end">4 residual streams</text>
<line x1="920" y1="1326" x2="922" y2="1326" stroke="#66707f" stroke-width="1.2" stroke-dasharray="4 4"/>
<text x="460" y="1450" font-size="12" fill="#66707f" font-weight="700" text-anchor="start" font-family="ui-monospace, monospace">READING NOTES</text>
<text x="460" y="1476" font-size="12.5" fill="#172033" font-weight="400" text-anchor="start">schedule K,K,K,D ×11 + K — 45 layers</text>
<text x="460" y="1500" font-size="12.5" fill="#172033" font-weight="400" text-anchor="start">then 42 MoE · 288 routed top-8 + 1 shared</text>
<text x="460" y="1524" font-size="12.5" fill="#172033" font-weight="400" text-anchor="start">mHC Eq.(3): x' = Hres·x + Hpostᵀ·F(Hpre·x)</text>
<line x1="24" y1="1560" x2="58" y2="1560" stroke="#172033" stroke-width="1.6" marker-end="url(#ar)"/>
<text x="64" y="1564" font-size="12" fill="#66707f" font-weight="400" text-anchor="start">data flow</text>
<line x1="154" y1="1560" x2="188" y2="1560" stroke="#66707f" stroke-width="1.4" stroke-dasharray="4 4"/>
<text x="194" y="1564" font-size="12" fill="#66707f" font-weight="400" text-anchor="start">callout</text>
<line x1="274" y1="1560" x2="308" y2="1560" stroke="#0f766e" stroke-width="1.6" marker-end="url(#art)"/>
<text x="314" y="1564" font-size="12" fill="#66707f" font-weight="400" text-anchor="start">residual stream ×4</text>
<text x="1036" y="1564" font-size="12" fill="#66707f" font-weight="400" text-anchor="end" font-family="ui-monospace, monospace">C · nested-containment</text>
</svg>
